<svg width="512" height="512" viewBox="0 0 512 512" fill="none" xmlns="http://www.w3.org/2000/svg">
  <path d="M 221.36 76.00 Q 256.00 56.00 290.64 76.00 L 394.56 136.00 Q 429.21 156.00 429.21 196.00 L 429.21 316.00 Q 429.21 356.00 394.56 376.00 L 290.64 436.00 Q 256.00 456.00 221.36 436.00 L 117.44 376.00 Q 82.79 356.00 82.79 316.00 L 82.79 196.00 Q 82.79 156.00 117.44 136.00 Z" fill="#C4B8D9" stroke="#3E3252" stroke-width="12" stroke-linecap="round" stroke-linejoin="round"/>
  <path d="M 234.35 138.50 Q 256.00 126.00 277.65 138.50 L 346.93 178.50 Q 368.58 191.00 368.58 216.00 L 368.58 296.00 Q 368.58 321.00 346.93 333.50 L 277.65 373.50 Q 256.00 386.00 234.35 373.50 L 165.07 333.50 Q 143.42 321.00 143.42 296.00 L 143.42 216.00 Q 143.42 191.00 165.07 178.50 Z" fill="#A896C8" stroke="#3E3252" stroke-width="12" stroke-linecap="round" stroke-linejoin="round"/>
  <path d="M 245.61 202.00 Q 256.00 196.00 266.39 202.00 L 297.57 220.00 Q 307.96 226.00 307.96 238.00 L 307.96 274.00 Q 307.96 286.00 297.57 292.00 L 266.39 310.00 Q 256.00 316.00 245.61 310.00 L 214.43 292.00 Q 204.04 286.00 204.04 274.00 L 204.04 238.00 Q 204.04 226.00 214.43 220.00 Z" fill="#8B6DB8" stroke="#3E3252" stroke-width="12" stroke-linecap="round" stroke-linejoin="round"/>
  <circle cx="256" cy="256" r="12" fill="#3E3252"/>
</svg>
